<?xml version="1.0" encoding="UTF-8" standalone="no"?>
<!-- Created with Inkscape (http://www.inkscape.org/) -->

<svg
   width="210mm"
   height="297mm"
   viewBox="0 0 210 297"
   version="1.1"
   id="svg1"
   xml:space="preserve"
   inkscape:version="1.4.3 (0d15f75, 2025-12-25)"
   sodipodi:docname="avalongLogo.svg"
   xmlns:inkscape="http://www.inkscape.org/namespaces/inkscape"
   xmlns:sodipodi="http://sodipodi.sourceforge.net/DTD/sodipodi-0.dtd"
   xmlns="http://www.w3.org/2000/svg"
   xmlns:svg="http://www.w3.org/2000/svg"><sodipodi:namedview
     id="namedview1"
     pagecolor="#ffffff"
     bordercolor="#000000"
     borderopacity="0.25"
     inkscape:showpageshadow="2"
     inkscape:pageopacity="0.0"
     inkscape:pagecheckerboard="0"
     inkscape:deskcolor="#d1d1d1"
     inkscape:document-units="mm"
     inkscape:zoom="0.71891835"
     inkscape:cx="397.12437"
     inkscape:cy="561.25984"
     inkscape:window-width="1920"
     inkscape:window-height="1009"
     inkscape:window-x="1912"
     inkscape:window-y="-8"
     inkscape:window-maximized="1"
     inkscape:current-layer="layer1"><inkscape:page
       x="0"
       y="0"
       width="210"
       height="297"
       id="page2"
       margin="0"
       bleed="0" /></sodipodi:namedview><defs
     id="defs1" /><g
     inkscape:label="Layer 1"
     inkscape:groupmode="layer"
     id="layer1"><rect
       x="-30.427082"
       y="12.964585"
       width="270.93332"
       height="270.93332"
       rx="14.816667"
       fill="#f5efe4"
       id="rect1"
       style="stroke-width:0.264583" /><circle
       cx="105.03958"
       cy="124.08958"
       r="77.258331"
       fill="#1f2937"
       id="circle1"
       style="stroke-width:0.264583" /><circle
       cx="105.03958"
       cy="124.08958"
       r="68.791664"
       fill="#f8f5ef"
       stroke="#1f2937"
       stroke-width="3.175"
       id="circle2" /><circle
       cx="105.03958"
       cy="124.08958"
       r="60.325001"
       fill="none"
       stroke="#d1b56a"
       stroke-width="5.82083"
       stroke-dasharray="34, 22"
       id="circle3" /><circle
       cx="105.03958"
       cy="124.08958"
       r="47.625"
       fill="#fbfaf7"
       stroke="#b89f72"
       stroke-width="2.64583"
       id="circle4" /><circle
       cx="105.03958"
       cy="124.08958"
       r="38.629166"
       fill="#f1e8d8"
       stroke="#d4c1a0"
       stroke-width="1.5875"
       id="circle5" /><g
       fill="#c8b089"
       stroke="#8d7346"
       stroke-width="4"
       id="g14"
       transform="matrix(0.26458333,0,0,0.26458333,-30.427082,12.964585)"><circle
         cx="512"
         cy="216"
         r="20"
         id="circle6" /><circle
         cx="653"
         cy="262"
         r="20"
         id="circle7" /><circle
         cx="725"
         cy="387"
         r="20"
         id="circle8" /><circle
         cx="690"
         cy="531"
         r="20"
         id="circle9" /><circle
         cx="582"
         cy="617"
         r="20"
         id="circle10" /><circle
         cx="442"
         cy="617"
         r="20"
         id="circle11" /><circle
         cx="334"
         cy="531"
         r="20"
         id="circle12" /><circle
         cx="299"
         cy="387"
         r="20"
         id="circle13" /><circle
         cx="371"
         cy="262"
         r="20"
         id="circle14" /></g><g
       transform="matrix(0.26458333,0,0,0.26458333,105.03958,44.185418)"
       id="g17"><path
         d="M -118,42 -84,-6 -26,30 0,-26 26,30 84,-6 118,42 V 78 H -118 Z"
         fill="#d1b56a"
         stroke="#7f6517"
         stroke-width="8"
         id="path14" /><circle
         cx="-84"
         cy="-6"
         r="8"
         fill="#fff2bf"
         id="circle15" /><circle
         cx="0"
         cy="-26"
         r="8"
         fill="#fff2bf"
         id="circle16" /><circle
         cx="84"
         cy="-6"
         r="8"
         fill="#fff2bf"
         id="circle17" /></g><g
       id="g19"
       transform="matrix(0.26458333,0,0,0.26458333,-30.427082,12.964585)"><!-- Blade --><rect
         x="500"
         y="270"
         width="24"
         height="348"
         rx="8"
         fill="#d1b56a"
         stroke="#7f6517"
         stroke-width="5"
         id="rect17" /><!-- Crossguard --><rect
         x="454"
         y="280"
         width="116"
         height="18"
         rx="8"
         fill="#d1b56a"
         stroke="#7f6517"
         stroke-width="5"
         id="rect18" /><!-- Tip --><path
         d="m 512,128 48,64 -22,34 h -52 l -22,-34 z"
         fill="#d1b56a"
         stroke="#7f6517"
         stroke-width="6"
         id="path18" /><!-- J body --><path
         d="m 512,224 36,52 -12,12 v 240 c 0,94 -60,154 -146,154 -46,0 -82,-17 -110,-44 l 32,-34 c 23,21 47,32 77,32 54,0 99,-34 99,-108 V 288 l -12,-12 z"
         fill="#8a1731"
         stroke="#4d0d1b"
         stroke-width="7"
         id="path19" /></g><text
       x="105.03958"
       y="227.80624"
       font-size="22.225px"
       font-weight="800"
       text-anchor="middle"
       fill="#1f2937"
       font-family="Arial, Helvetica, sans-serif"
       id="text19"
       style="stroke-width:0.264583">籌碼阿瓦隆</text><text
       x="105.03958"
       y="245.26875"
       font-size="10.0542px"
       font-weight="700"
       text-anchor="middle"
       letter-spacing="3"
       fill="#5f6773"
       font-family="Arial, Helvetica, sans-serif"
       id="text20"
       style="stroke-width:0.264583">CHIP AVALON</text><text
       x="105.03958"
       y="71.172913"
       font-size="13.7583px"
       font-weight="700"
       text-anchor="middle"
       fill="#8a1731"
       font-family="Arial, Helvetica, sans-serif"
       id="text17"
       style="stroke-width:0.264583">KTH</text></g></svg>
